HIERARCHY
ROOT Hips
{
	OFFSET 0.00000 0.00000 0.00000
	CHANNELS 6 Xposition Yposition Zposition Zrotation Yrotation Xrotation 
	JOINT LHipJoint
	{
		OFFSET 0 0 0
		CHANNELS 3 Zrotation Yrotation Xrotation
		JOINT LeftUpLeg
		{
			OFFSET 1.86795 -1.59681 0.65681
			CHANNELS 3 Zrotation Yrotation Xrotation
			JOINT LeftLeg
			{
				OFFSET 2.30491 -6.33268 0.00000
				CHANNELS 3 Zrotation Yrotation Xrotation
				JOINT LeftFoot
				{
					OFFSET 2.46780 -6.78022 0.00000
					CHANNELS 3 Zrotation Yrotation Xrotation
					JOINT LeftToeBase
					{
						OFFSET 0.07897 -0.21698 1.59652
						CHANNELS 3 Zrotation Yrotation Xrotation
						End Site
						{
							OFFSET 0.00000 -0.00000 0.82310
						}
					}
				}
			}
		}
	}
	JOINT RHipJoint
	{
		OFFSET 0 0 0
		CHANNELS 3 Zrotation Yrotation Xrotation
		JOINT RightUpLeg
		{
			OFFSET -1.93650 -1.59681 0.65681
			CHANNELS 3 Zrotation Yrotation Xrotation
			JOINT RightLeg
			{
				OFFSET -2.29410 -6.30299 0.00000
				CHANNELS 3 Zrotation Yrotation Xrotation
				JOINT RightFoot
				{
					OFFSET -2.48738 -6.83403 0.00000
					CHANNELS 3 Zrotation Yrotation Xrotation
					JOINT RightToeBase
					{
						OFFSET -0.08699 -0.23899 1.89395
						CHANNELS 3 Zrotation Yrotation Xrotation
						End Site
						{
							OFFSET -0.00000 -0.00000 0.96904
						}
					}
				}
			}
		}
	}
	JOINT LowerBack
	{
		OFFSET 0 0 0
		CHANNELS 3 Zrotation Yrotation Xrotation
		JOINT Spine
		{
			OFFSET 0.03629 1.99740 -0.07548
			CHANNELS 3 Zrotation Yrotation Xrotation
			JOINT Spine1
			{
				OFFSET 0.03970 1.94298 0.17218
				CHANNELS 3 Zrotation Yrotation Xrotation
				JOINT Neck
				{
					OFFSET 0 0 0
					CHANNELS 3 Zrotation Yrotation Xrotation
					JOINT Neck1
					{
						OFFSET -0.05054 1.79469 0.04241
						CHANNELS 3 Zrotation Yrotation Xrotation
						JOINT Head
						{
							OFFSET 0.05195 1.78475 -0.22133
							CHANNELS 3 Zrotation Yrotation Xrotation
							End Site
							{
								OFFSET 0.02420 1.80711 -0.07950
							}
						}
					}
				}
				JOINT LeftShoulder
				{
					OFFSET 0 0 0
					CHANNELS 3 Zrotation Yrotation Xrotation
					JOINT LeftArm
					{
						OFFSET 2.92134 1.19850 0.36056
						CHANNELS 3 Zrotation Yrotation Xrotation
						JOINT LeftForeArm
						{
							OFFSET 4.84137 -0.00000 0.00000
							CHANNELS 3 Zrotation Yrotation Xrotation
							JOINT LeftHand
							{
								OFFSET 3.24520 -0.00000 -0.00000
								CHANNELS 3 Zrotation Yrotation Xrotation
								JOINT LeftFingerBase
								{
									OFFSET 0 0 0
									CHANNELS 3 Zrotation Yrotation Xrotation
									JOINT LeftHandIndex1
									{
										OFFSET 0.52122 -0.00000 0.00000
										CHANNELS 3 Zrotation Yrotation Xrotation
										End Site
										{
											OFFSET 0.42022 -0.00000 0.00000
										}
									}
								}
								JOINT LThumb
								{
									OFFSET 0 0 0
									CHANNELS 3 Zrotation Yrotation Xrotation
									End Site
									{
										OFFSET 0.42664 -0.00000 0.42664
									}
								}
							}
						}
					}
				}
				JOINT RightShoulder
				{
					OFFSET 0 0 0
					CHANNELS 3 Zrotation Yrotation Xrotation
					JOINT RightArm
					{
						OFFSET -2.84327 1.20795 0.50191
						CHANNELS 3 Zrotation Yrotation Xrotation
						JOINT RightForeArm
						{
							OFFSET -4.72284 -0.00000 0.00000
							CHANNELS 3 Zrotation Yrotation Xrotation
							JOINT RightHand
							{
								OFFSET -3.23459 -0.00000 0.00000
								CHANNELS 3 Zrotation Yrotation Xrotation
								JOINT RightFingerBase
								{
									OFFSET 0 0 0
									CHANNELS 3 Zrotation Yrotation Xrotation
									JOINT RightHandIndex1
									{
										OFFSET -0.30742 -0.00000 0.00000
										CHANNELS 3 Zrotation Yrotation Xrotation
										End Site
										{
											OFFSET -0.24785 -0.00000 0.00000
										}
									}
								}
								JOINT RThumb
								{
									OFFSET 0 0 0
									CHANNELS 3 Zrotation Yrotation Xrotation
									End Site
									{
										OFFSET -0.25163 -0.00000 0.25163
									}
								}
							}
						}
					}
				}
			}
		}
	}
}
MOTION
Frames: 9
Frame Time: .0083333
28.6264 15.1313 -33.6119 0 0 0 0 0 0 -21 0 0 0 0 0 0 0 0 0 0 0 0 0 0 21 0 0 0 0 0 0 0 0 0 0 0 0 0 0 0 0 0 0 0 0 0 0 -16 0 0 21 0 0 11 0 0 0 -8 0 0 0 0 0 0 0 0 0 0 0 0 0 0 0 0 0 0 0 0 8 0 0 0 0 0 0 0 0 0 0 0 0 0 0 0 0 0
28.6264 15.1313 -33.6119 2.0056 -30.5690 13.1510 0.0000 0.0000 0.0000 -24.3675 -22.5657 -25.6131 4.7499 13.0964 39.7306 2.0098 8.9112 -31.2003 0.0306 -1.1284 -3.1022 0.0000 0.0000 0.0000 18.8538 13.0120 -47.0146 -11.4747 -18.1596 64.3137 0.0350 -6.4386 -8.2166 -1.0404 6.4872 -18.2048 -1.2478 1.2823 8.2836 0.0716 1.5852 0.2876 0.5865 0.8080 -4.3835 -6.4784 0.1181 -6.4670 7.5303 -0.3192 16.5674 3.4532 -0.0160 6.0726 0.0000 -0.0000 0.0000 -91.7345 25.5860 33.3114 26.4475 -37.6472 -9.1596 -0.0000 0.0000 -13.6238 -18.7421 55.3521 -15.5960 -7.1250 0.0000 -0.0000 -88.0083 65.6619 -60.9429 0.0000 -0.0000 0.0000 82.8916 -23.4085 47.9712 -23.2340 34.3437 -7.2699 0.0000 -0.0000 -37.5671 -23.4661 10.8214 -4.6595 7.1250 -0.0000 -0.0000 2.5448 -18.2157 1.6234
28.6233 15.1473 -33.5943 1.7829 -30.6735 13.2347 0.0000 0.0000 0.0000 -24.2323 -22.2663 -25.4915 4.7056 13.0444 39.5350 2.0201 8.7282 -31.1469 0.0446 -1.3631 -3.7484 0.0000 0.0000 0.0000 18.9016 12.7829 -47.8370 -11.7739 -18.2934 65.2704 0.0375 -5.4661 -6.5160 -0.9954 6.3495 -17.8020 -1.0942 1.2792 8.2821 0.1732 1.6002 0.2752 0.6036 0.8135 -4.3945 -6.4388 0.0652 -6.3241 7.5258 -0.3958 16.4012 3.4359 -0.0536 6.0012 -0.0000 0.0000 0.0000 -91.7159 25.4639 33.4779 26.2338 -37.4386 -9.0294 -0.0000 0.0000 -13.6744 -18.6249 55.3044 -15.4877 -7.1250 0.0000 -0.0000 -87.8501 65.6902 -60.8114 -0.0000 0.0000 0.0000 82.8546 -23.4365 47.8123 -23.3272 34.4447 -7.3225 0.0000 -0.0000 -37.8243 -23.5771 11.1922 -4.8419 7.1250 -0.0000 -0.0000 2.4831 -17.8043 1.6064
28.6186 15.1586 -33.5799 1.4804 -30.7394 13.4011 0.0000 0.0000 0.0000 -23.9728 -21.9800 -25.4907 4.6700 13.0023 39.3769 1.9898 9.0455 -31.1636 0.1094 -2.1324 -5.8716 0.0000 0.0000 0.0000 18.9861 12.7197 -48.6551 -12.0698 -18.4200 66.2098 0.0404 -4.5591 -4.6899 -1.1281 6.7463 -18.9659 -0.8462 1.2594 8.3688 0.2658 1.6011 0.1866 0.5571 0.8105 -4.5313 -6.2911 0.0682 -6.3091 7.4575 -0.4048 16.4720 3.3895 -0.0547 6.0216 0.0000 -0.0000 0.0000 -91.6706 25.4930 33.5371 26.0885 -37.2960 -8.9412 -0.0000 0.0000 -13.5756 -18.9907 55.1081 -15.7633 -7.1250 0.0000 -0.0000 -87.6265 65.5343 -60.3578 0.0000 -0.0000 0.0000 82.8968 -23.5480 47.6835 -23.4612 34.5893 -7.3985 0.0000 -0.0000 -37.9013 -23.9592 11.0927 -4.8867 7.1250 -0.0000 -0.0000 2.2101 -17.8762 1.4261
28.6128 15.1668 -33.5603 1.3985 -30.9220 13.3342 0.0000 0.0000 0.0000 -24.0022 -21.6368 -25.2697 4.6233 12.9467 39.1691 1.9512 9.3293 -31.1119 0.1275 -2.3022 -6.3415 0.0000 0.0000 0.0000 18.8591 12.6408 -49.2990 -12.3622 -18.5396 67.1324 0.0266 -3.3861 -3.1084 -1.3413 7.3327 -20.7049 -0.4790 1.2773 8.3340 0.0488 1.6499 0.2475 0.1217 0.8242 -4.4321 -5.9366 0.0830 -6.2306 7.5049 -0.4369 16.3737 3.3405 -0.0473 5.9788 0.0000 0.0000 0.0000 -91.1435 25.3744 33.8394 25.9898 -37.1986 -8.8815 -0.0000 0.0000 -13.6685 -18.7962 55.1887 -15.6126 -7.1250 0.0000 -0.0000 -87.6952 65.6126 -60.5388 0.0000 0.0000 0.0000 83.4422 -23.4897 47.4259 -23.5076 34.6392 -7.4248 0.0000 -0.0000 -37.7836 -24.5062 10.6776 -4.8279 7.1250 -0.0000 -0.0000 1.8051 -18.2764 1.1486
28.6071 15.1754 -33.5377 1.6699 -31.0582 13.0326 0.0000 0.0000 0.0000 -24.4107 -21.3327 -24.9132 4.5769 12.8908 38.9612 1.8637 9.5028 -30.6836 0.1493 -2.4898 -6.8613 0.0000 0.0000 0.0000 18.4128 12.3492 -49.9450 -12.6441 -18.6499 68.0164 0.0122 -2.1127 -1.6089 -1.3873 7.4524 -21.0629 -0.0953 1.1997 8.1933 -0.4441 1.5610 0.3978 -0.5879 0.7680 -4.1719 -5.4894 0.1404 -6.1143 7.6927 -0.4388 16.1401 3.3203 -0.0115 5.8846 -0.0000 -0.0000 0.0000 -90.3073 25.1862 34.1705 25.9628 -37.1719 -8.8652 -0.0000 0.0000 -14.0716 -18.1771 55.4395 -15.1308 -7.1250 0.0000 -0.0000 -87.9113 65.8596 -61.1080 -0.0000 -0.0000 0.0000 84.1866 -23.2626 47.3085 -23.4747 34.6039 -7.4061 0.0000 -0.0000 -37.8145 -25.0523 10.2893 -4.7725 7.1250 -0.0000 -0.0000 1.4001 -18.6503 0.8791
28.6021 15.1906 -33.5193 1.7560 -31.0524 12.8835 0.0000 0.0000 0.0000 -24.5905 -20.9738 -24.7495 4.5359 12.8412 38.7771 1.7576 9.3541 -29.9081 0.1797 -2.7301 -7.5283 0.0000 0.0000 0.0000 18.1730 12.0287 -50.6273 -12.8817 -18.7390 68.7577 0.0030 -1.0416 0.0057 -1.3558 7.3707 -20.8183 0.1146 1.0968 8.3048 -0.5986 1.4365 0.4211 -0.8537 0.7007 -4.2020 -5.3276 0.1368 -6.3084 7.6709 -0.4585 16.2452 3.2877 -0.0091 5.9528 0.0000 0.0000 0.0000 -89.9639 25.1653 34.3833 25.9852 -37.1941 -8.8787 -0.0000 0.0000 -14.2560 -18.4082 55.4139 -15.3229 -7.1250 0.0000 -0.0000 -87.9717 65.7807 -61.0656 0.0000 0.0000 0.0000 84.4692 -23.1652 47.0513 -23.4048 34.5285 -7.3665 0.0000 -0.0000 -37.8790 -24.9514 10.5107 -4.8513 7.1250 -0.0000 -0.0000 1.4827 -18.4172 0.9387
28.5967 15.2119 -33.5013 1.5046 -31.0920 12.9771 0.0000 0.0000 0.0000 -24.4245 -20.5485 -24.7385 4.5017 12.7997 38.6233 1.6827 9.0992 -29.2453 0.2174 -3.0016 -8.2832 0.0000 0.0000 0.0000 18.2450 11.9059 -51.2992 -13.0815 -18.8114 69.3786 -0.0092 -0.0305 1.8044 -1.3653 7.3955 -20.8926 0.3169 1.0990 8.4905 -0.4826 1.4637 0.3756 -0.8553 0.7105 -4.3510 -5.4477 0.0227 -6.5159 7.5834 -0.5794 16.3239 3.2742 -0.0765 6.0227 0.0000 0.0000 0.0000 -89.9168 25.2405 34.6215 26.0224 -37.2308 -8.9012 -0.0000 0.0000 -14.2548 -18.6610 55.2152 -15.5026 -7.1250 0.0000 -0.0000 -87.6820 65.6610 -60.5911 0.0000 0.0000 0.0000 84.6388 -23.1541 46.2884 -23.2720 34.3849 -7.2913 0.0000 -0.0000 -37.7027 -24.4761 11.1872 -5.0473 7.1250 -0.0000 -0.0000 1.8521 -17.7238 1.2010
28.5921 15.2309 -33.4819 1.3456 -31.1832 13.0915 0.0000 0.0000 0.0000 -24.3007 -20.3176 -24.6078 4.4559 12.7436 38.4160 1.6333 8.9367 -28.8049 0.3495 -3.7982 -10.5097 0.0000 0.0000 0.0000 18.1930 11.8377 -52.0607 -13.2787 -18.8805 69.9890 -0.0311 1.1002 3.9298 -1.4322 7.5669 -21.4060 0.4447 1.1158 8.3953 -0.4219 1.5008 0.4146 -0.8658 0.7275 -4.2549 -5.5125 -0.0605 -6.4506 7.6151 -0.6733 15.9915 3.2832 -0.1253 5.9140 0.0000 -0.0000 0.0000 -89.9169 25.1722 34.6582 26.0624 -37.2702 -8.9254 -0.0000 0.0000 -14.1805 -18.7388 55.2332 -15.5718 -7.1250 0.0000 -0.0000 -87.7588 65.6398 -60.6444 0.0000 -0.0000 0.0000 84.7706 -23.0489 45.7278 -23.2246 34.3335 -7.2646 0.0000 -0.0000 -37.5653 -25.3105 12.0246 -5.6269 7.1250 -0.0000 -0.0000 1.3174 -16.7236 0.8829
